<mxfile host="app.diagrams.net" modified="2023-02-14T22:23:58.609Z" agent="5.0 (Windows NT 10.0; Win64; x64) AppleWebKit/537.36 (KHTML, like Gecko) Chrome/109.0.0.0 Safari/537.36" etag="P5Q27wWpLv2ZMfCvH4fJ" version="20.8.20" type="github">
  <diagram name="Page-1" id="ev49jWa0cgNa2obPd0zC">
    <mxGraphModel dx="1564" dy="755" grid="1" gridSize="10" guides="1" tooltips="1" connect="1" arrows="1" fold="1" page="1" pageScale="1" pageWidth="850" pageHeight="1100" math="0" shadow="0">
      <root>
        <mxCell id="0" />
        <mxCell id="1" parent="0" />
        <mxCell id="Q6fW_6gtQLhR0NhS17Qm-9" value="OIDC" style="rounded=1;whiteSpace=wrap;html=1;align=center;fillColor=#d5e8d4;strokeColor=#82b366;verticalAlign=top;" vertex="1" parent="1">
          <mxGeometry x="120" y="42" width="310" height="388" as="geometry" />
        </mxCell>
        <mxCell id="Q6fW_6gtQLhR0NhS17Qm-3" value="" style="edgeStyle=orthogonalEdgeStyle;rounded=0;orthogonalLoop=1;jettySize=auto;html=1;" edge="1" parent="1" source="Q6fW_6gtQLhR0NhS17Qm-1" target="Q6fW_6gtQLhR0NhS17Qm-2">
          <mxGeometry relative="1" as="geometry" />
        </mxCell>
        <mxCell id="Q6fW_6gtQLhR0NhS17Qm-1" value="Actor" style="shape=umlActor;verticalLabelPosition=bottom;verticalAlign=top;html=1;outlineConnect=0;" vertex="1" parent="1">
          <mxGeometry x="50" y="250" width="30" height="60" as="geometry" />
        </mxCell>
        <mxCell id="Q6fW_6gtQLhR0NhS17Qm-8" value="" style="edgeStyle=orthogonalEdgeStyle;rounded=0;orthogonalLoop=1;jettySize=auto;html=1;" edge="1" parent="1" source="Q6fW_6gtQLhR0NhS17Qm-2" target="Q6fW_6gtQLhR0NhS17Qm-6">
          <mxGeometry relative="1" as="geometry" />
        </mxCell>
        <mxCell id="Q6fW_6gtQLhR0NhS17Qm-2" value="Angular SPA" style="sketch=0;aspect=fixed;html=1;points=[];align=center;image;fontSize=12;image=img/lib/mscae/Intune_App_Protection.svg;" vertex="1" parent="1">
          <mxGeometry x="140" y="260" width="50" height="40" as="geometry" />
        </mxCell>
        <mxCell id="Q6fW_6gtQLhR0NhS17Qm-4" value="Apigee API&#xa;Platform" style="sketch=0;html=1;verticalAlign=top;labelPosition=center;verticalLabelPosition=bottom;align=center;spacingTop=-6;fontSize=11;fontStyle=1;fontColor=#999999;shape=image;aspect=fixed;imageAspect=0;image=data:image/svg+xml,PHN2ZyB4bWxucz0iaHR0cDovL3d3dy53My5vcmcvMjAwMC9zdmciIHhtbG5zOnY9Imh0dHBzOi8vdmVjdGEuaW8vbmFubyIgd2lkdGg9IjIwLjE4MDIzMTA5NDM2MDM1IiBoZWlnaHQ9IjIwLjE4MDIwODIwNjE3Njc1OCIgdmlld0JveD0iLTAuMDAwMTE1MTY1MTIzMTMzOTIwMTMgLTAuMDAwMTAzMzQ0NDkzMjU0NTUzNTMgMjAuMTgwMjMxMDk0MzYwMzUgMjAuMTgwMjA4MjA2MTc2NzU4Ij4mI3hhOwk8c3R5bGUgdHlwZT0idGV4dC9jc3MiPiYjeGE7CS5zdDB7ZmlsbDojNjY5ZGY2O2ZpbGwtcnVsZTpldmVub2RkfSYjeGE7CS5zdDF7ZmlsbC1ydWxlOmV2ZW5vZGQ7ZmlsbDojNDI4NWY0fSYjeGE7CTwvc3R5bGU+JiN4YTsJPHBhdGggY2xhc3M9InN0MCIgZD0iTTMuMjkgMTAuMDlsMS4zMi0xLjMyLTEuNzktMS43OWEyLjk0IDIuOTQgMCAwIDEgMi4wOC01IDIuOTIgMi45MiAwIDAgMSAyLjA3Ljg2bDEuOCAxLjc5IDEuMzItMS4zNEw4LjMgMS41YTQuODEgNC44MSAwIDEgMC02LjggNi44em0xMy42IDBsLTEuMzIgMS4zMiAxLjc5IDEuOGEyLjk0IDIuOTQgMCAwIDEtNC4xNiA0LjE1bC0xLjc5LTEuNzktMS4zMiAxLjMyIDEuNzkgMS43OWE0LjgxIDQuODEgMCAxIDAgNi44LTYuOHoiLz4mI3hhOwk8cGF0aCBjbGFzcz0ic3QxIiBkPSJNNi45OCAxNy4zNmEyLjk0IDIuOTQgMCAxIDEtNC4xNi00LjE2bDEuNzktMS43OSA0LjE2IDQuMTZ6bTYuMjMtMTQuNTRhMi45MyAyLjkzIDAgMCAxIDUgMi4wOCAzIDMgMCAwIDEtLjg2IDIuMDhsLTEuNzkgMS43OS00LjE1LTQuMTZ6bS0zLjEyIDEwLjQ2YTMuMiAzLjIgMCAwIDEtMy4xOS0zLjE5aDBhMy4yMSAzLjIxIDAgMCAxIDMuMTktMy4xOWgwYTMuMjEgMy4yMSAwIDAgMSAzLjE5IDMuMTloMGEzLjIgMy4yIDAgMCAxLTMuMTkgMy4xOXptNi44LTMuMTlsMS43OS0xLjc5QTQuODEgNC44MSAwIDAgMCAxNi41NzQuMTUzIDQuODEgNC44MSAwIDAgMCAxMS44OCAxLjVsLTEuNzkgMS43OS02LjggNi44LTEuNzkgMS43OWE0LjgxIDQuODEgMCAwIDAgMi4xMDYgOC4xNDdBNC44MSA0LjgxIDAgMCAwIDguMyAxOC42OGwxLjc5LTEuNzl6Ii8+JiN4YTs8L3N2Zz4=;" vertex="1" parent="1">
          <mxGeometry x="313.5" y="102" width="42" height="42" as="geometry" />
        </mxCell>
        <mxCell id="Q6fW_6gtQLhR0NhS17Qm-31" style="edgeStyle=orthogonalEdgeStyle;rounded=0;orthogonalLoop=1;jettySize=auto;html=1;entryX=0;entryY=0.462;entryDx=0;entryDy=0;entryPerimeter=0;" edge="1" parent="1" source="Q6fW_6gtQLhR0NhS17Qm-6" target="Q6fW_6gtQLhR0NhS17Qm-30">
          <mxGeometry relative="1" as="geometry" />
        </mxCell>
        <mxCell id="Q6fW_6gtQLhR0NhS17Qm-6" value="API Gateway&lt;br&gt;&lt;br&gt;&lt;br&gt;Throttling&lt;br&gt;&lt;br&gt;Security&lt;br&gt;&lt;br&gt;Authorization&lt;br&gt;&lt;br&gt;API Portal" style="rounded=1;whiteSpace=wrap;html=1;fillColor=#dae8fc;strokeColor=#6c8ebf;" vertex="1" parent="1">
          <mxGeometry x="290" y="160" width="89" height="240" as="geometry" />
        </mxCell>
        <mxCell id="Q6fW_6gtQLhR0NhS17Qm-10" value="OKTA" style="shape=image;html=1;verticalAlign=top;verticalLabelPosition=bottom;labelBackgroundColor=#ffffff;imageAspect=0;aspect=fixed;image=https://cdn1.iconfinder.com/data/icons/unicons-line-vol-5/24/okta-128.png" vertex="1" parent="1">
          <mxGeometry x="130" y="52" width="50" height="50" as="geometry" />
        </mxCell>
        <mxCell id="Q6fW_6gtQLhR0NhS17Qm-23" value="/movie" style="shape=image;verticalLabelPosition=bottom;labelBackgroundColor=default;verticalAlign=top;aspect=fixed;imageAspect=0;image=https://nodered.org/about/resources/media/node-red-icon.png;" vertex="1" parent="1">
          <mxGeometry x="510" y="80" width="80" height="80" as="geometry" />
        </mxCell>
        <mxCell id="Q6fW_6gtQLhR0NhS17Qm-25" value="firestore" style="editableCssRules=.*;shape=image;verticalLabelPosition=bottom;labelBackgroundColor=#ffffff;verticalAlign=top;aspect=fixed;imageAspect=0;image=data:image/svg+xml,PHN2ZyB4bWxucz0iaHR0cDovL3d3dy53My5vcmcvMjAwMC9zdmciIHhtbG5zOnY9Imh0dHBzOi8vdmVjdGEuaW8vbmFubyIgd2lkdGg9IjMyMy45MDU2MTAzOTg2NzUxNSIgaGVpZ2h0PSIzNzYuNDIyMjk0OTYzNjg0MDciIHZpZXdCb3g9Ii0wLjA5NzAwMDAwMjg2MTAyMjk1IDAuMjg3OTk5OTg3NjAyMjMzOSA4NS42OTk5OTY5NDgyNDIxOSA5OS41OTUwMDEyMjA3MDMxMiI+JiN4YTs8c3R5bGUgdHlwZT0idGV4dC9jc3MiPiYjeGE7CS5zdDB7ZmlsbDojYWVjYmZhO30mI3hhOwkuc3Qxe2ZpbGw6IzY2OWRmNjt9JiN4YTsJLnN0MntmaWxsOiM0Mjg1ZjQ7fSYjeGE7PC9zdHlsZT4mI3hhOwk8cGF0aCBjbGFzcz0ic3QwIiBkPSJNLS4wOTcgNzUuODE1VjU1Ljg3NGw0Mi44NS0yMC4xODN2MTkuMDd6bTAtMzUuNDAzVjIwLjQ3MUw0Mi43NTMuMjg4djE5LjA3eiIvPiYjeGE7CTxwYXRoIGNsYXNzPSJzdDEiIGQ9Ik04NS42MDMgNzUuODE1VjU1Ljg3NGwtNDIuODUtMjAuMTgzdjE5LjA3em0wLTM1LjQwM1YyMC40NzFMNDIuNzUzLjI4OHYxOS4wN3oiLz4mI3hhOwk8cGF0aCBjbGFzcz0ic3QyIiBkPSJNNDIuNzUzIDgwLjMxNGwxNi4yMTctNy41MjUgMjEuMDg0IDkuNzE3LTM3LjMwMSAxNy4zNzd6Ii8+JiN4YTs8L3N2Zz4=;" vertex="1" parent="1">
          <mxGeometry x="680" y="245" width="59.5" height="70" as="geometry" />
        </mxCell>
        <mxCell id="Q6fW_6gtQLhR0NhS17Qm-28" value="&lt;div style=&quot;text-align: center;&quot;&gt;Tech Stack&lt;/div&gt;&lt;ul&gt;&lt;li&gt;Angular SPA running on GCP AppEngine&lt;/li&gt;&lt;li&gt;OKTA Authentication&lt;/li&gt;&lt;li&gt;ApigeeX API Gateway on GCP&lt;/li&gt;&lt;li&gt;Rest endpoints running on node-red&lt;/li&gt;&lt;li&gt;node-red on AWS EC2&lt;/li&gt;&lt;li&gt;firestore on GCP&lt;/li&gt;&lt;/ul&gt;" style="rounded=1;whiteSpace=wrap;html=1;labelBackgroundColor=none;align=left;fillColor=#dae8fc;strokeColor=#6c8ebf;" vertex="1" parent="1">
          <mxGeometry x="100" y="480" width="330" height="140" as="geometry" />
        </mxCell>
        <mxCell id="Q6fW_6gtQLhR0NhS17Qm-29" value="URLs&lt;br&gt;&lt;ul&gt;&lt;li style=&quot;text-align: left;&quot;&gt;SPA : https://avela.mondevwork.com&lt;/li&gt;&lt;li style=&quot;text-align: left;&quot;&gt;API node-red:&amp;nbsp;http://100.24.240.65:1880/&lt;/li&gt;&lt;li style=&quot;text-align: left;&quot;&gt;API Portal:&amp;nbsp;https://avela-377619-avela.apigee.io/&lt;/li&gt;&lt;/ul&gt;" style="rounded=1;whiteSpace=wrap;html=1;labelBackgroundColor=none;fillColor=#fff2cc;strokeColor=#d6b656;" vertex="1" parent="1">
          <mxGeometry x="460" y="480" width="330" height="120" as="geometry" />
        </mxCell>
        <mxCell id="Q6fW_6gtQLhR0NhS17Qm-34" style="edgeStyle=orthogonalEdgeStyle;rounded=0;orthogonalLoop=1;jettySize=auto;html=1;" edge="1" parent="1" target="Q6fW_6gtQLhR0NhS17Qm-25">
          <mxGeometry relative="1" as="geometry">
            <mxPoint x="600" y="280" as="sourcePoint" />
          </mxGeometry>
        </mxCell>
        <mxCell id="Q6fW_6gtQLhR0NhS17Qm-30" value="APIs" style="rounded=1;whiteSpace=wrap;html=1;labelBackgroundColor=none;verticalAlign=top;" vertex="1" parent="1">
          <mxGeometry x="500" y="160" width="100" height="260" as="geometry" />
        </mxCell>
        <mxCell id="Q6fW_6gtQLhR0NhS17Qm-32" value="/movie" style="rounded=1;whiteSpace=wrap;html=1;labelBackgroundColor=none;fillColor=#e1d5e7;strokeColor=#9673a6;" vertex="1" parent="1">
          <mxGeometry x="520" y="221" width="60" height="30" as="geometry" />
        </mxCell>
        <mxCell id="Q6fW_6gtQLhR0NhS17Qm-36" value="/automate" style="rounded=1;whiteSpace=wrap;html=1;labelBackgroundColor=none;fillColor=#b1ddf0;strokeColor=#10739e;" vertex="1" parent="1">
          <mxGeometry x="520" y="285" width="60" height="30" as="geometry" />
        </mxCell>
        <mxCell id="Q6fW_6gtQLhR0NhS17Qm-37" value="..." style="rounded=1;whiteSpace=wrap;html=1;labelBackgroundColor=none;fillColor=#b1ddf0;strokeColor=#10739e;" vertex="1" parent="1">
          <mxGeometry x="520" y="350" width="60" height="30" as="geometry" />
        </mxCell>
      </root>
    </mxGraphModel>
  </diagram>
</mxfile>
